<svg viewBox="0 0 24 24" width="24px" height="24px" x="0" y="0" preserveAspectRatio="xMinYMin meet" xmlns="http://www.w3.org/2000/svg" xmlns:xlink="http://www.w3.org/1999/xlink" class="artdeco-icon" focusable="false">
  <path d="M17.29,3a3.7,3.7,0,0,0-2.62,1.09L12.09,6.67A3.7,3.7,0,0,0,11,9.29a3.65,3.65,0,0,0,.52,1.86l-0.37.37a3.66,3.66,0,0,0-4.48.56L4.09,14.67a3.71,3.71,0,1,0,5.24,5.24l2.59-2.59A3.7,3.7,0,0,0,13,14.71a3.65,3.65,0,0,0-.52-1.86l0.37-.37a3.66,3.66,0,0,0,4.48-.57l2.59-2.59A3.71,3.71,0,0,0,17.29,3ZM11.13,14.71a1.82,1.82,0,0,1-.54,1.3L8,18.59A1.83,1.83,0,0,1,5.41,16L8,13.41a1.79,1.79,0,0,1,1.74-.48L8.28,14.4A0.94,0.94,0,0,0,9.6,15.73l1.46-1.46A1.82,1.82,0,0,1,11.13,14.71ZM18.59,8L16,10.59a1.79,1.79,0,0,1-1.74.48L15.73,9.6A0.94,0.94,0,0,0,14.4,8.27L12.94,9.74A1.79,1.79,0,0,1,13.41,8L16,5.41A1.83,1.83,0,0,1,18.59,8Z" style="fill: #5a5d5f"/>
</svg>
